<?xml version="1.0" encoding="UTF-8" standalone="no"?>
<!-- Created with Inkscape (http://www.inkscape.org/) -->

<svg
   xmlns:dc="http://purl.org/dc/elements/1.1/"
   xmlns:cc="http://creativecommons.org/ns#"
   xmlns:rdf="http://www.w3.org/1999/02/22-rdf-syntax-ns#"
   xmlns:svg="http://www.w3.org/2000/svg"
   xmlns="http://www.w3.org/2000/svg"
   xmlns:sodipodi="http://sodipodi.sourceforge.net/DTD/sodipodi-0.dtd"
   xmlns:inkscape="http://www.inkscape.org/namespaces/inkscape"
   id="svg2"
   sodipodi:version="0.32"
   inkscape:version="0.47 r22583"
   width="360"
   height="145"
   version="1.0"
   sodipodi:docname="Tacking.svg">
  <metadata
     id="metadata7">
    <rdf:RDF>
      <cc:Work
         rdf:about="">
        <dc:format>image/svg+xml</dc:format>
        <dc:type
           rdf:resource="http://purl.org/dc/dcmitype/StillImage" />
      </cc:Work>
    </rdf:RDF>
  </metadata>
  <defs
     id="defs5">
    <inkscape:perspective
       sodipodi:type="inkscape:persp3d"
       inkscape:vp_x="0 : 72.5 : 1"
       inkscape:vp_y="0 : 1000 : 0"
       inkscape:vp_z="360 : 72.5 : 1"
       inkscape:persp3d-origin="180 : 48.333333 : 1"
       id="perspective4126" />
  </defs>
  <sodipodi:namedview
     inkscape:window-height="746"
     inkscape:window-width="1028"
     inkscape:pageshadow="2"
     inkscape:pageopacity="0.0"
     guidetolerance="10.0"
     gridtolerance="10.0"
     objecttolerance="10.0"
     borderopacity="1.0"
     bordercolor="#666666"
     pagecolor="#ffffff"
     id="base"
     inkscape:zoom="2.5777778"
     inkscape:cx="180"
     inkscape:cy="72.5"
     inkscape:window-x="-4"
     inkscape:window-y="-4"
     inkscape:current-layer="svg2"
     showgrid="false"
     inkscape:window-maximized="0" />
  <path
     style="fill:none;fill-rule:evenodd;stroke:black;stroke-width:1px;stroke-linecap:butt;stroke-linejoin:miter;stroke-opacity:1"
     d="M 18.935697,109.31349 C 30.588434,76.90432 61.176868,80.181652 61.176868,80.181652 C 61.176868,80.181652 60.81272,111.49838 29.49599,119.87379 L 18.935697,109.31349 z "
     id="path1910" />
  <path
     style="fill:none;fill-rule:evenodd;stroke:black;stroke-width:1px;stroke-linecap:butt;stroke-linejoin:miter;stroke-opacity:1"
     d="M 24.106079,114.83043 C 15.01084,123.92567 14.789005,124.1475 14.789005,124.1475"
     id="path1914" />
  <path
     transform="translate(-6.006202e-2,6.006202e-2)"
     style="fill:black;fill-opacity:1;fill-rule:nonzero"
     d="M 48.951608,92.425087 C 48.951608,93.200622 48.355316,93.830042 47.620598,93.830042 C 46.88588,93.830042 46.289587,93.200622 46.289587,92.425087 C 46.289587,91.649552 46.88588,91.020131 47.620598,91.020131 C 48.355316,91.020131 48.951608,91.649552 48.951608,92.425087 z "
     id="path1918" />
  <path
     style="fill:none;stroke:#000000;stroke-width:1px;stroke-linecap:butt;stroke-linejoin:miter;stroke-opacity:1"
     d="m 47.626227,92.924012 c 0,0 -14.996678,2.346064 -26.007764,14.624288"
     id="path1922" />
  <path
     transform="translate(0,1.958739)"
     style=""
     d="M 38.470703,67.026882 L 37.416016,67.026882 L 37.416016,60.306179 C 37.162106,60.548373 36.829099,60.79056 36.416992,61.032741 C 36.004881,61.274934 35.634764,61.456575 35.306641,61.577663 L 35.306641,60.558132 C 35.896482,60.280795 36.412107,59.944858 36.853516,59.550319 C 37.294919,59.155796 37.607418,58.772984 37.791016,58.401882 L 38.470703,58.401882 L 38.470703,67.026882 z "
     id="flowRoot1924" />
  <path
     transform="translate(6.764489,10.0301)"
     style="fill:none;fill-rule:evenodd;stroke:black;stroke-width:1px;stroke-linecap:butt;stroke-linejoin:miter;stroke-opacity:1"
     d="M 37.321321,54.962315 C 37.321321,58.438796 34.499829,61.260287 31.023348,61.260287 C 27.546867,61.260287 24.725375,58.438796 24.725375,54.962315 C 24.725375,51.485834 27.546867,48.664342 31.023348,48.664342 C 34.499829,48.664342 37.321321,51.485834 37.321321,54.962315 z "
     id="path1945" />
  <path
     transform="translate(84.20623,-35.68851)"
     style="fill:none;fill-rule:evenodd;stroke:black;stroke-width:1px;stroke-linecap:butt;stroke-linejoin:miter;stroke-opacity:1"
     d="M 37.321321,54.962315 C 37.321321,58.438796 34.499829,61.260287 31.023348,61.260287 C 27.546867,61.260287 24.725375,58.438796 24.725375,54.962315 C 24.725375,51.485834 27.546867,48.664342 31.023348,48.664342 C 34.499829,48.664342 37.321321,51.485834 37.321321,54.962315 z "
     id="path2836" />
  <path
     transform="translate(168.879,-40.58693)"
     style="fill:none;fill-rule:evenodd;stroke:black;stroke-width:1px;stroke-linecap:butt;stroke-linejoin:miter;stroke-opacity:1"
     d="M 37.321321,54.962315 C 37.321321,58.438796 34.499829,61.260287 31.023348,61.260287 C 27.546867,61.260287 24.725375,58.438796 24.725375,54.962315 C 24.725375,51.485834 27.546867,48.664342 31.023348,48.664342 C 34.499829,48.664342 37.321321,51.485834 37.321321,54.962315 z "
     id="path2838" />
  <path
     transform="translate(248.6533,-10.72988)"
     style="fill:none;fill-rule:evenodd;stroke:black;stroke-width:1px;stroke-linecap:butt;stroke-linejoin:miter;stroke-opacity:1"
     d="M 37.321321,54.962315 C 37.321321,58.438796 34.499829,61.260287 31.023348,61.260287 C 27.546867,61.260287 24.725375,58.438796 24.725375,54.962315 C 24.725375,51.485834 27.546867,48.664342 31.023348,48.664342 C 34.499829,48.664342 37.321321,51.485834 37.321321,54.962315 z "
     id="path2840" />
  <path
     transform="translate(304.6353,54.81569)"
     style="fill:none;fill-rule:evenodd;stroke:black;stroke-width:1px;stroke-linecap:butt;stroke-linejoin:miter;stroke-opacity:1"
     d="M 37.321321,54.962315 C 37.321321,58.438796 34.499829,61.260287 31.023348,61.260287 C 27.546867,61.260287 24.725375,58.438796 24.725375,54.962315 C 24.725375,51.485834 27.546867,48.664342 31.023348,48.664342 C 34.499829,48.664342 37.321321,51.485834 37.321321,54.962315 z "
     id="path2842" />
  <path
     style="fill:none;fill-rule:evenodd;stroke:black;stroke-width:1px;stroke-linecap:butt;stroke-linejoin:miter;stroke-opacity:1"
     d="M 82.268294,59.153929 C 96.354357,27.725858 126.60455,33.322215 126.60455,33.322215 C 126.60455,33.322215 123.85748,64.520348 91.994046,70.487484 L 82.268294,59.153929 z "
     id="path2846" />
  <path
     style="fill:none;fill-rule:evenodd;stroke:black;stroke-width:1px;stroke-linecap:butt;stroke-linejoin:miter;stroke-opacity:1"
     d="M 151.13232,23.192393 C 181.6548,7.2387436 201.941,30.365863 201.941,30.365863 C 201.941,30.365863 180.46406,53.16084 151.75028,38.114114 L 151.13232,23.192393 z "
     id="path2848" />
  <path
     style="fill:none;fill-rule:evenodd;stroke:black;stroke-width:1px;stroke-linecap:butt;stroke-linejoin:miter;stroke-opacity:1"
     d="M 234.46302,20.908132 C 268.00181,28.736913 268.28187,59.499148 268.28187,59.499148 C 268.28187,59.499148 237.13293,62.757031 225.19405,32.618212 L 234.46302,20.908132 z "
     id="path2850" />
  <path
     style="fill:none;fill-rule:evenodd;stroke:black;stroke-width:1px;stroke-linecap:butt;stroke-linejoin:miter;stroke-opacity:1"
     d="M 298.65541,72.725222 C 330.10962,86.752809 324.56953,117.01337 324.56953,117.01337 C 324.56953,117.01337 293.36634,114.32431 287.33995,82.472032 L 298.65541,72.725222 z "
     id="path2852" />
  <path
     transform="translate(63.88915,-47.95342)"
     style="fill:black;fill-opacity:1;fill-rule:nonzero"
     d="M 48.951608,92.425087 C 48.951608,93.200622 48.355316,93.830042 47.620598,93.830042 C 46.88588,93.830042 46.289587,93.200622 46.289587,92.425087 C 46.289587,91.649552 46.88588,91.020131 47.620598,91.020131 C 48.355316,91.020131 48.951608,91.649552 48.951608,92.425087 z "
     id="path2860" />
  <path
     transform="translate(136.387,-62.13786)"
     style="fill:black;fill-opacity:1;fill-rule:nonzero"
     d="M 48.951608,92.425087 C 48.951608,93.200622 48.355316,93.830042 47.620598,93.830042 C 46.88588,93.830042 46.289587,93.200622 46.289587,92.425087 C 46.289587,91.649552 46.88588,91.020131 47.620598,91.020131 C 48.355316,91.020131 48.951608,91.649552 48.951608,92.425087 z "
     id="path2862" />
  <path
     transform="translate(207.2145,-44.90184)"
     style="fill:black;fill-opacity:1;fill-rule:nonzero"
     d="M 48.951608,92.425087 C 48.951608,93.200622 48.355316,93.830042 47.620598,93.830042 C 46.88588,93.830042 46.289587,93.200622 46.289587,92.425087 C 46.289587,91.649552 46.88588,91.020131 47.620598,91.020131 C 48.355316,91.020131 48.951608,91.649552 48.951608,92.425087 z "
     id="path2866" />
  <path
     transform="translate(265.8844,10.19188)"
     style="fill:black;fill-opacity:1;fill-rule:nonzero"
     d="M 48.951608,92.425087 C 48.951608,93.200622 48.355316,93.830042 47.620598,93.830042 C 46.88588,93.830042 46.289587,93.200622 46.289587,92.425087 C 46.289587,91.649552 46.88588,91.020131 47.620598,91.020131 C 48.355316,91.020131 48.951608,91.649552 48.951608,92.425087 z "
     id="path2868" />
  <path
     style="fill:none;fill-rule:evenodd;stroke:black;stroke-width:1px;stroke-linecap:butt;stroke-linejoin:miter;stroke-opacity:1"
     d="M 87.337427,65.294868 C 87.337428,78.157479 87.337424,78.471197 87.337424,78.471197"
     id="path2870" />
  <path
     style="fill:none;fill-rule:evenodd;stroke:black;stroke-width:1px;stroke-linecap:butt;stroke-linejoin:miter;stroke-opacity:1"
     d="M 151.22366,31.263946 C 142.12842,40.359192 141.90658,40.581011 141.90658,40.581011"
     id="path2872" />
  <path
     style="fill:none;fill-rule:evenodd;stroke:black;stroke-width:1px;stroke-linecap:butt;stroke-linejoin:miter;stroke-opacity:1"
     d="M 229.45455,27.070514 C 216.59194,27.070514 216.27822,27.070504 216.27822,27.070504"
     id="path2874" />
  <path
     style="fill:none;fill-rule:evenodd;stroke:black;stroke-width:1px;stroke-linecap:butt;stroke-linejoin:miter;stroke-opacity:1"
     d="M 283.64208,68.286855 C 292.73732,77.382095 292.95915,77.603927 292.95915,77.603927"
     id="path2876" />
  <path
     style="fill:red;fill-opacity:1;fill-rule:nonzero"
     d="M 341.64258,64.975616 L 351.79952,64.975616 L 351.79952,70.054087 L 341.64258,70.054087 L 341.64258,64.975616 z "
     id="rect2878" />
  <path
     transform="translate(5.54015,0)"
     style="fill:red;fill-opacity:1;fill-rule:nonzero"
     d="M 322.86232,67.130119 L 329.56065,63.262839 L 336.25898,59.395558 L 336.25898,67.130119 L 336.25898,74.864681 L 329.56065,70.9974 L 322.86232,67.130119 z "
     id="path2884" />
  <path
     transform="translate(19.39052,10.92641)"
     style=""
     d="M 98.384766,11.51321 L 98.384766,12.526882 L 92.707031,12.526882 C 92.699218,12.272976 92.740234,12.028835 92.830078,11.79446 C 92.974609,11.407742 93.206054,11.026883 93.524414,10.651882 C 93.842772,10.276884 94.302732,9.8432907 94.904297,9.3511005 C 95.837887,8.5854794 96.468746,7.9790347 96.796875,7.5317645 C 97.124995,7.0845044 97.289058,6.6616532 97.289063,6.2632098 C 97.289058,5.8452478 97.139644,5.4927091 96.84082,5.2055927 C 96.541988,4.9184909 96.15234,4.7749363 95.671875,4.7749286 C 95.16406,4.7749363 94.75781,4.9272799 94.453125,5.2319598 C 94.148436,5.5366543 93.994139,5.9585289 93.990234,6.4975848 L 92.90625,6.3862567 C 92.980468,5.5776699 93.259765,4.9614596 93.744141,4.5376239 C 94.228514,4.1138042 94.878904,3.9018903 95.695313,3.9018817 C 96.519527,3.9018903 97.17187,4.1304057 97.652344,4.5874286 C 98.132807,5.0444673 98.373041,5.610873 98.373047,6.2866473 C 98.373041,6.6304032 98.302728,6.9682935 98.162109,7.3003192 C 98.021479,7.6323554 97.78808,7.9819644 97.461914,8.3491473 C 97.135737,8.7163387 96.593746,9.2202444 95.835938,9.8608661 C 95.203122,10.392118 94.796873,10.752469 94.617188,10.941921 C 94.437498,11.131375 94.289061,11.321805 94.171875,11.51321 L 98.384766,11.51321 z "
     id="flowRoot2886" />
  <path
     transform="translate(1.692824,3.53954)"
     style=""
     d="M 195.34766,12.884304 L 196.40234,12.743679 C 196.52344,13.341337 196.72949,13.772 197.02051,14.035671 C 197.31152,14.299344 197.66601,14.431179 198.08398,14.431179 C 198.58007,14.431179 198.99902,14.259304 199.34082,13.915554 C 199.68261,13.571805 199.85351,13.146024 199.85352,12.63821 C 199.85351,12.153838 199.69531,11.754424 199.37891,11.439968 C 199.0625,11.125519 198.66015,10.968292 198.17188,10.968288 C 197.97265,10.968292 197.72461,11.007355 197.42773,11.085475 L 197.54492,10.159694 C 197.61523,10.167512 197.67187,10.171418 197.71484,10.171413 C 198.16406,10.171418 198.56836,10.054231 198.92773,9.8198505 C 199.2871,9.585481 199.46679,9.2241533 199.4668,8.7358661 C 199.46679,8.3491541 199.33593,8.028842 199.07422,7.7749286 C 198.8125,7.52103 198.47461,7.394077 198.06055,7.3940692 C 197.65039,7.394077 197.30859,7.5229831 197.03516,7.780788 C 196.76172,8.0386076 196.58594,8.4253259 196.50781,8.9409442 L 195.45313,8.7534442 C 195.58203,8.0464201 195.875,7.4985691 196.33203,7.1098895 C 196.78906,6.7212261 197.35742,6.5268903 198.03711,6.5268817 C 198.50586,6.5268903 198.9375,6.6274762 199.33203,6.8286395 C 199.72656,7.0298195 200.02832,7.3042333 200.2373,7.6518817 C 200.44628,7.9995451 200.55078,8.3686854 200.55078,8.7593036 C 200.55078,9.1304034 200.45117,9.4682937 200.25195,9.7729755 C 200.05273,10.077668 199.75781,10.319855 199.36719,10.499538 C 199.87499,10.61673 200.26953,10.859894 200.55078,11.22903 C 200.83203,11.598174 200.97265,12.060088 200.97266,12.614772 C 200.97265,13.364774 200.69921,14.000516 200.15234,14.521999 C 199.60546,15.043483 198.91406,15.304225 198.07813,15.304225 C 197.32422,15.304225 196.69824,15.079616 196.2002,14.630397 C 195.70215,14.18118 195.41797,13.599149 195.34766,12.884304 L 195.34766,12.884304 z "
     id="flowRoot2894" />
  <path
     transform="translate(6.001829,4.462898)"
     style=""
     d="M 273.97266,43.901882 L 273.97266,41.845241 L 270.24609,41.845241 L 270.24609,40.878444 L 274.16602,35.312038 L 275.02734,35.312038 L 275.02734,40.878444 L 276.1875,40.878444 L 276.1875,41.845241 L 275.02734,41.845241 L 275.02734,43.901882 L 273.97266,43.901882 z M 273.97266,40.878444 L 273.97266,37.005397 L 271.2832,40.878444 L 273.97266,40.878444 z "
     id="flowRoot2902" />
  <path
     transform="translate(102.4928,25.23846)"
     style=""
     d="M 230.0918,86.745632 L 231.19922,86.651882 C 231.28125,87.190946 231.47168,87.596219 231.77051,87.867702 C 232.06933,88.139187 232.42968,88.274929 232.85156,88.274929 C 233.35937,88.274929 233.78906,88.083523 234.14063,87.70071 C 234.49218,87.317899 234.66796,86.810087 234.66797,86.177272 C 234.66796,85.575713 234.49902,85.101104 234.16113,84.753444 C 233.82324,84.405793 233.38086,84.231965 232.83398,84.23196 C 232.49414,84.231965 232.1875,84.309113 231.91406,84.463405 C 231.64062,84.617706 231.42578,84.817902 231.26953,85.063991 L 230.2793,84.935085 L 231.11133,80.522975 L 235.38281,80.522975 L 235.38281,81.530788 L 231.95508,81.530788 L 231.49219,83.839382 C 232.00781,83.480012 232.54883,83.300325 233.11523,83.300319 C 233.86523,83.300325 234.49804,83.56009 235.01367,84.079616 C 235.52929,84.599152 235.7871,85.26712 235.78711,86.083522 C 235.7871,86.860868 235.56054,87.532743 235.10742,88.099147 C 234.55664,88.79446 233.80468,89.142116 232.85156,89.142116 C 232.07031,89.142116 231.43262,88.923366 230.93848,88.485866 C 230.44434,88.048367 230.16211,87.468289 230.0918,86.745632 L 230.0918,86.745632 z "
     id="flowRoot2910" />
  <path
     style="fill:none;fill-rule:evenodd;stroke:black;stroke-width:1px;stroke-linecap:butt;stroke-linejoin:miter;stroke-opacity:1"
     d="M 184.05609,30.195783 C 184.05609,30.195783 181.28601,28.656853 177.59258,30.04189 C 173.89915,31.426928 173.28358,30.50357 170.05182,29.580211 C 166.82007,28.656853 163.8961,30.811356 163.8961,30.811356"
     id="path2919" />
  <path
     id="path4130"
     d="m 110.47105,44.820564 c 0,0 -14.996673,2.346064 -26.007759,14.624288"
     style="fill:none;stroke:#000000;stroke-width:1px;stroke-linecap:butt;stroke-linejoin:miter;stroke-opacity:1" />
  <path
     style="fill:none;stroke:#000000;stroke-width:1px;stroke-linecap:butt;stroke-linejoin:miter;stroke-opacity:1"
     d="m 255.79674,48.209871 c 0,0 -14.44086,-4.67607 -23.38328,-18.533634"
     id="path4132" />
  <path
     id="path4134"
     d="m 312.04674,102.13228 c 0,0 -14.44086,-4.676065 -23.38328,-18.533629"
     style="fill:none;stroke:#000000;stroke-width:1px;stroke-linecap:butt;stroke-linejoin:miter;stroke-opacity:1" />
</svg>
